<svg width="1920" height="1081" viewBox="0 0 1920 1081" fill="none" xmlns="http://www.w3.org/2000/svg">
<g clip-path="url(#clip0_2_6)">
<rect width="1920" height="1081" fill="#536D4A"/>
<path d="M787.218 524.824C787.387 524.563 787.816 524.685 787.81 524.995C787.604 537.43 788.176 556.255 787.832 563.101C787.126 569.261 780.946 573.126 769.293 574.696C767.296 574.779 760.076 575.654 753.076 575.761C752.585 577.789 751.889 579.903 750.964 582.093C746.525 592.6 756.095 594.525 766.304 595.119C775.622 595.658 783.161 603.524 780.464 611.945C777.348 621.628 763.243 623.328 757.768 615.39C755.258 611.739 754.961 605.2 749.35 599.54C747.107 597.284 742.348 597.254 740.013 599.388C732.327 606.427 741.539 614.065 747.804 619.701C758.371 629.217 748.566 644.798 734.748 640.356C729.394 638.633 725.729 634.258 725.014 629.444C724.209 623.999 729.238 616.42 730.252 609.291C731.234 602.396 730.949 595.267 724.636 598.429C713.589 603.963 718.868 633.832 718.89 633.954C719.786 642.818 710.726 649.256 701.455 646.271C690.918 642.874 687.772 629.81 697.274 623.759C705.828 618.27 718.445 598.268 711.218 593.93C703.909 589.534 692.131 610.492 689.16 617.493C683.277 631.393 667.579 629.343 662.284 621.155C656.024 611.475 663.24 598.351 676.529 600.72C689.847 603.095 712.732 586.521 706.269 575.211C700.922 565.849 687.688 572.455 680.912 573.699C671.347 575.446 661.232 567.402 664.537 557.149C667.847 546.888 680.565 546.153 687.284 553.293C695.006 561.488 703.342 559.676 712.628 553.549C722.316 547.16 732.513 545.967 740.358 548.748C745.954 548.891 745.802 548.941 754.991 549.211C757.618 548.439 758.914 545.081 758.879 539.137C758.878 538.979 758.993 538.844 759.15 538.828C761.587 538.596 779.605 536.501 787.218 524.824ZM848.447 570.867C851.007 570.867 853.29 571.455 855.297 572.631C857.338 573.773 858.946 575.33 860.122 577.301C861.298 579.238 861.887 581.435 861.887 583.891C861.887 586.347 861.298 588.578 860.122 590.584C858.946 592.556 857.338 594.13 855.297 595.306C853.29 596.448 851.024 597.019 848.499 597.019C845.974 597.019 843.69 596.448 841.649 595.306C839.643 594.13 838.035 592.556 836.824 590.584C835.648 588.578 835.06 586.347 835.059 583.891C835.059 581.435 835.648 579.238 836.824 577.301C838 575.329 839.609 573.773 841.649 572.631C843.69 571.455 845.957 570.867 848.447 570.867ZM962.05 570.867C964.471 570.867 966.599 571.42 968.433 572.527C970.3 573.599 971.753 575.087 972.791 576.99C973.863 578.857 974.399 580.985 974.399 583.371C974.399 583.821 974.365 584.289 974.296 584.773C974.261 585.222 974.174 585.741 974.036 586.329L955.709 586.374C955.842 586.891 956.017 587.378 956.238 587.834C956.826 588.941 957.657 589.806 958.729 590.429C959.802 591.017 961.047 591.311 962.465 591.311C963.745 591.311 964.904 591.103 965.941 590.688C966.979 590.238 967.879 589.581 968.64 588.716L972.635 592.712C971.424 594.13 969.937 595.203 968.173 595.929C966.443 596.656 964.557 597.019 962.517 597.019C959.888 597.019 957.552 596.465 955.512 595.358C953.471 594.216 951.845 592.66 950.635 590.688C949.459 588.716 948.87 586.468 948.87 583.943C948.87 581.452 949.441 579.238 950.582 577.301C951.758 575.329 953.35 573.773 955.356 572.631C957.363 571.455 959.594 570.867 962.05 570.867ZM1038.72 570.867C1041.28 570.867 1043.56 571.455 1045.57 572.631C1047.61 573.773 1049.22 575.329 1050.4 577.301C1051.57 579.238 1052.16 581.435 1052.16 583.891C1052.16 586.347 1051.57 588.578 1050.4 590.584C1049.22 592.556 1047.61 594.13 1045.57 595.306C1043.56 596.448 1041.3 597.019 1038.77 597.019C1036.25 597.019 1033.97 596.448 1031.92 595.306C1029.92 594.13 1028.31 592.556 1027.1 590.584C1025.92 588.578 1025.33 586.347 1025.33 583.891C1025.33 581.435 1025.92 579.238 1027.1 577.301C1028.28 575.329 1029.88 573.773 1031.92 572.631C1033.97 571.455 1036.23 570.867 1038.72 570.867ZM1084.31 559.452C1087.22 559.452 1089.78 559.935 1091.99 560.904C1094.21 561.838 1096.16 563.136 1097.86 564.796L1093.08 569.57C1092.08 568.463 1090.85 567.598 1089.4 566.975C1087.95 566.352 1086.25 566.041 1084.31 566.041C1082.62 566.041 1081.06 566.335 1079.64 566.923C1078.26 567.477 1077.05 568.307 1076.01 569.413C1074.97 570.486 1074.18 571.784 1073.62 573.306C1073.07 574.793 1072.79 576.436 1072.79 578.235C1072.79 580.068 1073.07 581.729 1073.62 583.216C1074.18 584.704 1074.97 586.001 1076.01 587.108C1077.05 588.18 1078.26 589.011 1079.64 589.599C1081.06 590.187 1082.62 590.481 1084.31 590.481C1086.36 590.481 1088.1 590.169 1089.55 589.546C1091.04 588.924 1092.29 588.042 1093.29 586.901L1098.06 591.674C1096.37 593.369 1094.4 594.684 1092.15 595.618C1089.9 596.551 1087.29 597.019 1084.31 597.019C1081.65 597.019 1079.18 596.552 1076.89 595.618C1074.61 594.649 1072.6 593.317 1070.87 591.622C1069.18 589.893 1067.87 587.886 1066.93 585.603C1066.03 583.32 1065.58 580.864 1065.58 578.235C1065.58 575.606 1066.03 573.15 1066.93 570.867C1067.87 568.584 1069.18 566.595 1070.87 564.9C1072.6 563.205 1074.59 561.872 1076.84 560.904C1079.12 559.935 1081.62 559.452 1084.31 559.452ZM1147.18 570.918C1148.98 570.918 1150.59 571.282 1152.01 572.008C1152.95 572.491 1153.76 573.105 1154.45 573.848V571.438H1161.19V596.499H1154.45V594.065C1153.76 594.801 1152.95 595.423 1152.01 595.929C1150.59 596.656 1148.98 597.019 1147.18 597.019C1144.9 597.019 1142.84 596.448 1141.01 595.306C1139.17 594.164 1137.74 592.608 1136.7 590.636C1135.66 588.664 1135.14 586.45 1135.14 583.995C1135.14 581.504 1135.66 579.273 1136.7 577.301C1137.74 575.329 1139.17 573.773 1141.01 572.631C1142.84 571.49 1144.9 570.918 1147.18 570.918ZM1238.37 570.867C1240.93 570.867 1243.21 571.455 1245.22 572.631C1247.26 573.773 1248.87 575.329 1250.05 577.301C1251.22 579.238 1251.81 581.435 1251.81 583.891C1251.81 586.347 1251.22 588.578 1250.05 590.584C1248.87 592.556 1247.26 594.13 1245.22 595.306C1243.21 596.448 1240.95 597.019 1238.42 597.019C1235.9 597.019 1233.62 596.448 1231.57 595.306C1229.57 594.13 1227.96 592.556 1226.75 590.584C1225.57 588.578 1224.98 586.347 1224.98 583.891C1224.98 581.435 1225.57 579.238 1226.75 577.301C1227.93 575.329 1229.53 573.773 1231.57 572.631C1233.61 571.455 1235.88 570.867 1238.37 570.867ZM811.701 581.396L825.014 560.022H829.995V596.499H822.99V574.693L814.065 589.028H809.292L800.419 574.777V596.499H793.361V560.022H798.343L811.701 581.396ZM876.171 587.312L882.314 571.438H889.526L878.526 596.499H873.648L862.597 571.438H870.068L876.171 587.312ZM899.512 596.499H892.663V571.438H899.512V596.499ZM935.162 570.918C937.03 570.918 938.708 571.316 940.195 572.112C941.683 572.873 942.859 573.98 943.724 575.433C944.588 576.886 945.02 578.615 945.02 580.621V596.499H938.224V581.711C938.223 580.259 937.756 579.134 936.822 578.338C935.923 577.508 934.798 577.093 933.449 577.093C932.584 577.093 931.772 577.284 931.011 577.664C930.284 578.01 929.714 578.529 929.299 579.221C928.884 579.913 928.676 580.743 928.676 581.711V596.499H921.878V581.711C921.878 580.259 921.411 579.134 920.477 578.338C919.578 577.508 918.453 577.093 917.104 577.093C916.205 577.093 915.392 577.284 914.666 577.664C913.939 578.01 913.368 578.529 912.953 579.221C912.538 579.913 912.331 580.743 912.331 581.711V596.499H905.533V571.438H912.331V573.613C912.939 573.019 913.63 572.518 914.406 572.112C915.859 571.316 917.502 570.918 919.336 570.918C921.065 570.918 922.639 571.316 924.058 572.112C925.246 572.75 926.228 573.619 927.004 574.719C927.842 573.649 928.867 572.797 930.077 572.164C931.599 571.334 933.294 570.918 935.162 570.918ZM992.665 570.918C994.498 570.918 996.142 571.386 997.595 572.32C999.047 573.219 1000.19 574.413 1001.02 575.9C1001.85 577.353 1002.26 578.927 1002.26 580.621V596.499H995.467V582.126C995.467 580.639 995 579.428 994.066 578.495C993.132 577.561 991.921 577.093 990.433 577.093C989.465 577.093 988.6 577.301 987.839 577.716C987.078 578.131 986.473 578.719 986.023 579.48C985.608 580.241 985.4 581.123 985.4 582.126V596.499H978.603V571.438H985.4V573.787C986.02 573.152 986.729 572.611 987.528 572.164C989.05 571.334 990.762 570.918 992.665 570.918ZM1017.92 571.438H1023.78V577.405H1017.92V596.499H1011.12V577.405H1005.26V571.438H1011.12V561.008H1017.92V571.438ZM1115.53 570.918C1116.74 570.918 1117.83 571.126 1118.8 571.541C1119.76 571.922 1120.65 572.562 1121.44 573.461L1117.19 578.338C1116.81 577.923 1116.34 577.612 1115.79 577.405C1115.27 577.197 1114.66 577.093 1113.97 577.093C1112.52 577.093 1111.32 577.561 1110.39 578.495C1109.49 579.394 1109.04 580.778 1109.04 582.646V596.499H1102.24V571.438H1109.04V573.681C1109.06 573.66 1109.07 573.638 1109.09 573.617C1110.58 571.818 1112.73 570.918 1115.53 570.918ZM1130.68 596.499H1123.83V571.438H1130.68V596.499ZM1177.69 571.438H1183.55V577.405H1177.69V596.499H1170.89V577.405H1165.03V571.438H1170.89V561.008H1177.69V571.438ZM1194.22 596.499H1187.37V571.438H1194.22V596.499ZM1210.91 587.312L1217.06 571.438H1224.27L1213.27 596.499H1208.39L1197.34 571.438H1204.81L1210.91 587.312ZM1148.43 577.198C1147.18 577.198 1146.08 577.491 1145.11 578.079C1144.17 578.633 1143.43 579.428 1142.88 580.466C1142.36 581.469 1142.1 582.628 1142.1 583.943C1142.1 585.292 1142.36 586.485 1142.88 587.523C1143.43 588.526 1144.17 589.321 1145.11 589.91C1146.08 590.463 1147.18 590.74 1148.43 590.74C1150.33 590.74 1151.87 590.118 1153.05 588.872C1154.22 587.593 1154.81 585.949 1154.81 583.943C1154.81 582.628 1154.53 581.469 1153.98 580.466C1153.46 579.428 1152.72 578.633 1151.75 578.079C1150.81 577.491 1149.71 577.198 1148.43 577.198ZM848.447 577.249C847.202 577.249 846.094 577.543 845.126 578.131C844.157 578.685 843.396 579.463 842.843 580.466C842.289 581.469 842.013 582.628 842.013 583.943C842.013 585.257 842.289 586.433 842.843 587.471C843.396 588.474 844.157 589.27 845.126 589.858C846.094 590.411 847.202 590.688 848.447 590.688C849.727 590.688 850.852 590.411 851.82 589.858C852.823 589.27 853.584 588.474 854.102 587.471C854.656 586.433 854.933 585.257 854.933 583.943C854.933 582.628 854.656 581.469 854.102 580.466C853.549 579.463 852.789 578.685 851.82 578.131C850.852 577.543 849.727 577.249 848.447 577.249ZM1038.72 577.249C1037.48 577.249 1036.37 577.543 1035.4 578.131C1034.43 578.685 1033.67 579.463 1033.12 580.466C1032.56 581.469 1032.29 582.628 1032.29 583.943C1032.29 585.257 1032.56 586.433 1033.12 587.471C1033.67 588.474 1034.43 589.27 1035.4 589.858C1036.37 590.411 1037.48 590.688 1038.72 590.688C1040 590.688 1041.13 590.411 1042.09 589.858C1043.1 589.27 1043.86 588.474 1044.38 587.471C1044.93 586.433 1045.21 585.257 1045.21 583.943C1045.21 582.628 1044.93 581.469 1044.38 580.466C1043.82 579.463 1043.06 578.685 1042.09 578.131C1041.13 577.543 1040 577.249 1038.72 577.249ZM1238.37 577.249C1237.13 577.249 1236.02 577.543 1235.05 578.131C1234.08 578.685 1233.32 579.463 1232.77 580.466C1232.21 581.469 1231.94 582.628 1231.94 583.943C1231.94 585.257 1232.21 586.433 1232.77 587.471C1233.32 588.474 1234.08 589.27 1235.05 589.858C1236.02 590.411 1237.13 590.688 1238.37 590.688C1239.65 590.688 1240.78 590.411 1241.74 589.858C1242.75 589.27 1243.51 588.474 1244.03 587.471C1244.58 586.433 1244.86 585.257 1244.86 583.943C1244.86 582.628 1244.58 581.469 1244.03 580.466C1243.47 579.463 1242.71 578.685 1241.74 578.131C1240.78 577.543 1239.65 577.249 1238.37 577.249ZM962.05 576.523C960.701 576.523 959.525 576.834 958.521 577.456C957.518 578.044 956.74 578.892 956.186 579.999C955.993 580.4 955.834 580.829 955.713 581.287L967.844 581.252C967.707 580.658 967.524 580.119 967.291 579.636C966.841 578.633 966.166 577.872 965.267 577.353C964.402 576.8 963.33 576.523 962.05 576.523ZM896.087 559.607C897.228 559.607 898.146 559.987 898.838 560.748C899.564 561.509 899.927 562.426 899.927 563.498C899.927 564.605 899.564 565.539 898.838 566.3C898.146 567.027 897.228 567.39 896.087 567.39C894.98 567.39 894.063 567.027 893.337 566.3C892.611 565.539 892.248 564.605 892.248 563.498C892.248 562.426 892.61 561.509 893.337 560.748C894.063 559.987 894.98 559.607 896.087 559.607ZM1127.25 559.607C1128.4 559.607 1129.31 559.987 1130 560.748C1130.73 561.509 1131.09 562.426 1131.09 563.498C1131.09 564.605 1130.73 565.539 1130 566.3C1129.31 567.027 1128.4 567.39 1127.25 567.39C1126.15 567.39 1125.23 567.027 1124.5 566.3C1123.78 565.539 1123.41 564.605 1123.41 563.498C1123.41 562.426 1123.78 561.509 1124.5 560.748C1125.23 559.987 1126.15 559.607 1127.25 559.607ZM1190.8 559.607C1191.94 559.607 1192.86 559.987 1193.55 560.748C1194.28 561.509 1194.64 562.426 1194.64 563.498C1194.64 564.605 1194.27 565.539 1193.55 566.3C1192.86 567.027 1191.94 567.39 1190.8 567.39C1189.69 567.39 1188.77 567.027 1188.05 566.3C1187.32 565.539 1186.96 564.605 1186.96 563.498C1186.96 562.426 1187.32 561.509 1188.05 560.748C1188.77 559.987 1189.69 559.607 1190.8 559.607ZM820.216 456.651C844.268 453.119 868.32 454.06 892.372 459.475C897.669 461.947 900.964 473.679 902.259 494.67C902.141 496.436 901.2 497.789 899.434 498.731C890.136 499.162 882.955 499.34 877.893 499.261C859.884 499.771 842.934 499.634 827.043 498.849C827.2 502.066 827.632 504.734 828.338 506.853C828.809 509.011 830.574 510.149 833.635 510.267C856.156 508.737 876.363 507.481 894.255 506.5C895.55 507.089 896.727 508.226 897.786 509.913C897.904 514.857 898.022 518.781 898.14 521.684C898.375 526.275 898.669 530.512 899.022 534.397C898.905 535.692 898.198 536.771 896.903 537.634C872.224 543.48 848.623 544.971 826.101 542.107C818.254 541.283 811.27 538.085 805.149 532.514C798.205 526.275 796.498 507.481 800.029 476.131C802.736 465.263 809.465 458.77 820.216 456.651ZM1028.21 434.404C1035.23 433.933 1042.45 433.874 1049.87 434.227C1052.61 435.286 1054.48 437.346 1055.46 440.407C1056.95 458.377 1057.99 473.385 1058.58 485.43C1070.11 486.175 1076.19 485.783 1076.82 484.253C1079.1 480.761 1079.84 471.324 1079.06 455.944C1079.45 455.12 1080.04 454.708 1080.82 454.708C1096.09 455.101 1108.27 455.238 1117.37 455.12C1118.55 455.513 1119.28 456.042 1119.55 456.709C1120.1 464.203 1119.77 471.168 1118.55 477.603C1117.65 482.782 1113.37 486.215 1105.72 487.902C1114.27 489.51 1119.88 493.572 1122.55 500.085C1125.1 512.798 1125.63 525.726 1124.14 538.87C1123.59 539.929 1122.73 540.714 1121.55 541.224C1109.16 541.224 1094.58 542.665 1074.76 541.047C1073.66 540.773 1072.86 540.165 1072.35 539.223C1073.96 519.448 1074.09 507.677 1072.76 503.911C1072.17 501.988 1067.64 501.458 1059.16 502.322C1059.2 505.186 1059.18 507.736 1059.11 509.972C1058.95 525.392 1058.42 535.142 1057.52 539.223C1056.81 539.89 1055.91 540.125 1054.81 539.929C1046.41 539.89 1039.19 539.773 1033.15 539.577C1027.23 537.458 1024.26 533.455 1024.26 527.57C1023.99 507.52 1024.21 494.023 1024.91 487.078C1025.85 468.677 1026.19 451.765 1025.91 436.345C1025.79 435.168 1026.56 434.521 1028.21 434.404ZM925.095 461.241C952.599 451.314 981.359 450.687 1011.37 459.358C1012.9 460.064 1013.65 461.437 1013.61 463.477L1000.19 493.905C999.212 494.532 998.093 494.866 996.838 494.906C983.615 489.923 966.272 489.275 944.81 492.963C937.238 495.121 935.296 501.831 938.984 513.091C940.632 517.289 945.556 519.899 953.757 520.919C970.667 522.685 985.597 521.567 998.545 517.565C1000.27 516.152 1001.96 515.897 1003.61 516.799L1012.14 532.631C1012.53 533.808 1012.45 534.985 1011.91 536.162C982.203 543.068 953.109 542.205 924.624 533.573C915.521 530.394 910.362 517.996 909.145 496.377C909.812 477.583 915.129 465.87 925.095 461.241ZM1148.68 462.123C1158.49 456.866 1184.66 454.649 1227.19 455.473C1238.53 456.062 1247.38 460.829 1253.74 469.775C1258.6 477.544 1260.11 494.317 1258.27 520.095C1255.68 532.101 1243.6 538.537 1222.02 539.4C1188.31 541.087 1164.47 539.066 1150.51 533.337C1140.11 528.511 1134.95 515.74 1135.03 495.024C1135.54 477.642 1140.09 466.675 1148.68 462.123ZM710.888 452.961C742.943 451.274 765.367 453.294 778.158 459.023C785.691 461.966 789.616 472.638 789.93 491.039L789.988 490.922C789.959 493.526 789.923 496.397 789.882 499.363C789.638 516.912 776.818 531.732 759.502 534.592C759.502 534.592 724.621 537.554 699.471 536.887C688.798 536.299 680.774 531.531 675.398 522.585C671.043 510.461 670.906 493.688 674.986 472.265C678.361 460.259 690.328 453.825 710.888 452.961ZM1225.43 490.433C1194.47 488.079 1177.46 489.923 1174.4 495.965C1170.36 503.969 1170.36 511.483 1174.4 518.506C1177.46 523.45 1192.24 523.901 1218.72 519.86C1226.76 518.212 1231.45 515.171 1232.79 510.738C1235.1 498.535 1232.65 491.767 1225.43 490.433ZM749.556 470.735C720.403 468.42 704.139 470.284 700.765 476.327C696.331 484.331 695.763 491.844 699.058 498.868C701.57 503.811 715.714 504.87 741.492 502.045C749.261 500.397 753.93 497.357 755.5 492.923C758.286 479.505 756.304 472.108 749.556 470.735ZM861.237 474.542C849.623 473.561 839.756 473.835 831.634 475.366C829.515 476.464 828.181 478.524 827.632 481.545C827.396 483.585 827.22 485.489 827.102 487.254C839.697 487.254 852.665 486.843 866.005 486.019C866.24 483.508 866.475 480.643 866.711 477.426C866.632 475.974 864.808 475.013 861.237 474.542Z" fill="#FAF3E0"/>
<path d="M1830.26 68.9245C1805.68 78.8273 1786.58 81.5969 1763.33 98.1034C1757.44 102.29 1754.36 104.956 1748.81 109.594C1741.57 115.646 1740.66 133.136 1734.14 139.962C1725.11 149.427 1688.79 108.043 1683.37 119.953C1675.63 136.948 1656.35 173.769 1651.22 181.813C1640.67 198.339 1545.73 177.637 1542.77 174.215C1543.11 167.6 1634.11 175.119 1636.49 164.805C1638.51 156.034 1646.43 137.593 1649.52 127.927C1653.14 116.633 1657.37 105.286 1661.92 95.1933C1666.22 85.6591 1719.74 111.626 1724.37 105.431C1732.96 93.9449 1734.99 71.1012 1734.99 71.1012C1734.99 71.1012 1749.86 52.612 1759.53 42.2456C1761.39 39.6838 1763.92 37.472 1765.49 34.7454C1766.86 32.368 1778.2 15.9096 1779.1 13.2876C1787.5 29.2678 1802.19 57.6524 1830.26 68.9245Z" fill="#C1A67B"/>
<path d="M-87.8537 531.762C-82.595 521.953 -62.0269 505.62 -26.1496 482.762C-16.3803 476.975 -6.37287 476.048 3.87275 479.979C12.2251 483.756 22.7682 496.889 35.5021 519.378C39.9917 530.811 33.4893 542.859 15.9951 555.524C-11.14 575.586 -32.1095 587.098 -46.9134 590.059C-58.2441 591.796 -69.6108 584.016 -81.0133 566.719C-90.2103 551.961 -92.4904 540.309 -87.8537 531.762ZM-35.2234 564.48C-29.938 566.904 -17.3855 559.102 2.43398 541.076C8.22043 535.251 10.442 530.123 9.09868 525.692C4.27183 514.248 -1.51702 509.969 -8.26794 512.854C-35.3528 528.03 -48.4973 538.982 -47.7012 545.708C-46.6361 554.611 -42.4769 560.868 -35.2234 564.48Z" fill="#C1A67B"/>
<path d="M34.2778 401.455C39.6683 397 44.3813 393.886 51.2304 389.603C58.9174 384.797 62.8792 381.914 71.3359 378.646C75.2428 377.137 78.3364 376.056 81.8118 375.201C82.3738 375.064 82.9379 374.922 83.5032 374.784C84.475 374.502 85.4717 374.277 86.4598 374.055C86.9892 373.938 87.5238 373.831 88.0606 373.728C88.5603 373.624 89.064 373.527 89.5699 373.437C90.0954 373.332 90.6255 373.224 91.1464 373.1C98.2362 371.401 106.613 369.729 113.344 373.009C115.721 374.167 118.158 375.754 119.777 377.778C122.521 381.206 125.979 384.187 126.998 388.897C127.72 392.25 128.095 395.532 128.099 398.959C128.104 403.819 127.438 408.553 126.583 413.311C125.885 417.185 125.133 421.021 124.24 424.861C122.944 430.435 121.123 435.819 119.523 441.281C118.738 443.97 117.776 446.611 116.802 449.239C116.205 450.844 115.466 452.396 114.739 453.946C113.737 456.074 112.668 458.17 111.663 460.296C110.825 462.064 110.167 463.931 109.195 465.617C107.907 467.85 106.365 469.938 104.979 472.117C103.317 474.725 101.95 477.561 100.009 479.933C97.8958 482.518 95.2788 484.694 92.8739 487.036C92.1528 487.741 91.3733 488.39 90.675 489.114C88.2742 491.602 83.5128 494.456 80.0073 495.187C77.0437 495.807 74.201 496.487 71.2342 496.034C67.8224 495.511 64.4327 494.815 61.0702 494.049C58.3169 493.419 54.5553 494.928 55.2055 498.348C55.3402 499.078 55.3436 501.392 55.2429 502.195C54.8245 505.546 54.7558 506.947 54.1761 510.861C53.6417 514.468 50.6951 521.296 50.6951 521.296C50.6415 521.371 40.4284 535.776 36.818 538.422C38.4275 534.924 47.0154 522.601 35.2973 506.614C27.4007 495.841 18.3802 480.246 4.30015 475.081C-2.51406 472.581 -2.63245 472.582 -13.1113 473.468C-12.3514 473.404 -3.76188 469.398 7.21862 461.349C10.235 459.138 16.3065 455.992 15.1222 452.275C14.2682 449.594 14.2868 446.561 13.1077 444.068C11.0156 439.641 11.7922 433.098 13.7684 428.715C15.5506 424.771 17.3351 421.552 20.1513 417.285C22.7328 413.374 24.6627 410.653 27.4266 407.74C29.5571 405.494 31.9567 403.373 34.2778 401.455ZM121.752 404.476C120.415 400.791 115.393 398.442 114.082 399.898C113.032 401.064 114.747 409.96 115.735 414.262L116.532 415.445C118.717 413.017 122.821 407.424 121.752 404.476ZM88.1827 379.701C84.6919 381.485 82.9847 386.76 84.5931 387.88C85.8801 388.777 94.4947 385.971 98.6409 384.456L99.7154 383.518C97.0347 381.651 90.9755 378.275 88.1827 379.701Z" fill="#C1A67B"/>
<path d="M-10.0608 273.232C-6.29424 277.411 -5.31767 283.037 -7.11363 287.561C-9.14755 292.674 -17.2983 296.702 -21.75 302.358C-26.0572 307.829 -29.3864 314.138 -22.3396 314.575C-9.98441 315.34 0.445484 286.735 0.445484 286.735C4.11498 278.619 15.1796 277.602 21.7008 284.842C29.1106 293.074 25.2809 305.954 14.0276 306.414C3.87671 306.864 -17.0669 317.824 -12.991 325.207C-8.87434 332.682 11.8227 320.472 17.9032 315.91C29.962 306.842 42.5114 316.502 42.9852 326.245C43.5454 337.762 30.7224 345.488 20.4162 336.762C10.0888 328.017 -18.0169 330.855 -18.0983 343.883C-18.1677 354.667 -3.40852 355.602 3.07583 357.931C12.2251 361.226 16.9395 373.265 8.93933 380.472C0.931313 387.684 -10.4384 381.93 -12.6684 372.378C-15.2379 361.411 -23.3565 358.79 -34.46 359.424C-62.799 361.035 -78.1867 334.219 -53.3028 315.477C-44.1948 308.62 -51.5069 302.146 -60.0391 296.504C-67.8281 291.356 -70.4036 280.766 -63.8481 274.837C-56.2973 268.028 -43.2456 273.644 -42.4911 283.259C-42.1509 287.679 -45.1733 293.483 -43.1579 301.197C-42.3497 304.276 -38.2487 306.692 -35.1585 306.02C-24.9809 303.793 -29.1188 292.559 -31.7108 284.537C-36.078 270.997 -19.7844 262.448 -10.0608 273.232Z" fill="#C1A67B"/>
<path d="M14.9497 632.094C16.62 637.469 15.1517 642.986 11.6274 646.34C7.64013 650.13 -1.44698 650.37 -7.85667 653.638C-14.0577 656.799 -19.7215 661.131 -13.506 664.483C-2.60784 670.359 18.8364 648.761 18.8364 648.761C25.566 642.93 36.038 646.648 38.9284 655.957C42.2104 666.539 33.3413 676.627 22.9312 672.325C13.5259 668.477 -10.0786 669.645 -9.46855 678.058C-8.85956 686.571 15.0442 684.165 22.4751 682.573C37.22 679.397 44.571 693.431 40.9229 702.476C36.6101 713.168 21.733 714.805 16.0277 702.56C10.3113 690.289 -16.396 681.078 -21.924 692.874C-26.5013 702.636 -13.4915 709.675 -8.57863 714.509C-1.65043 721.337 -2.40952 734.246 -12.6907 737.435C-22.9809 740.625 -30.8956 730.632 -28.9219 721.024C-26.6642 709.988 -32.9386 704.204 -43.2857 700.123C-69.6917 689.701 -72.4377 658.898 -41.9978 652.317C-30.8574 649.91 -34.7867 640.966 -40.1721 632.265C-45.0893 624.324 -42.9945 613.627 -34.5606 610.994C-24.8539 607.978 -15.354 618.55 -18.6942 627.598C-20.2353 631.753 -25.4095 635.756 -26.8088 643.606C-27.3636 646.74 -24.6515 650.654 -21.5643 651.34C-11.3911 653.586 -10.4455 641.65 -9.44091 633.28C-7.73828 619.154 10.6352 618.224 14.9497 632.094Z" fill="#C1A67B"/>
<path d="M1917.79 -17.0374C1917.76 -17.3473 1918.18 -17.5112 1918.36 -17.2608C1926.17 -6.61228 1938.78 8.98622 1942.9 15.008C1946.26 20.6707 1943.51 27.9083 1934.67 36.7192C1933.02 38.0818 1927.41 43.5258 1921.51 48.1331C1922.31 50.0278 1923 52.0954 1923.57 54.3409C1926.56 66.0789 1935.89 61.5549 1944.9 55.4942C1953.13 49.9604 1964.55 51.7662 1967.67 60.6206C1971.25 70.8119 1960.41 81.3164 1950.69 78.1233C1946.22 76.6491 1941.78 71.3105 1933.4 70.1319C1930.06 69.6657 1926.01 72.6994 1925.41 76.0052C1923.42 86.8983 1936.11 87.4343 1945.03 88.1733C1960.07 89.4282 1961.78 108.906 1947.24 114.032C1941.61 116.017 1935.7 114.674 1932.01 111.063C1927.83 106.976 1927.22 97.334 1923.51 90.6543C1919.91 84.192 1915.1 78.3462 1911.79 85.0787C1906 96.8607 1929.63 118.728 1929.72 118.814C1936.17 125.733 1932.64 137.001 1922.88 140.436C1911.79 144.337 1900.75 135.312 1904.9 124.086C1908.61 113.946 1906.45 88.9214 1897.56 89.899C1888.55 90.8798 1892.04 116.174 1894.02 124.004C1897.97 139.54 1883.38 147.897 1873.64 144.377C1862.14 140.216 1859.82 124.478 1872.58 117.939C1885.36 111.387 1894.08 82.6603 1881.36 77.251C1870.83 72.7719 1863.88 86.8654 1858.95 92.2729C1851.98 99.899 1838.27 99.5982 1834.48 88.8034C1830.7 77.9992 1840.98 69.2018 1851.24 70.9215C1863.03 72.887 1868.92 65.9964 1872.84 54.8469C1877.17 42.5502 1885.7 34.7984 1894.66 32.5473C1898.4 29.8673 1898.93 29.5464 1906.21 24.3535C1907.93 22.0113 1906.87 18.3349 1903.01 13.3245C1902.91 13.1988 1902.93 13.0201 1903.04 12.9128C1904.92 11.1887 1918.9 -2.21734 1917.79 -17.0374ZM1807.1 -28.7131C1833.12 -50.7268 1853.38 -63.4195 1867.87 -66.7901C1876.13 -69.1397 1886.31 -62.6347 1898.39 -47.2755L1898.36 -47.4128C1900.01 -45.1927 1901.83 -42.7412 1903.7 -40.2066C1914.76 -25.2099 1913.44 -4.44481 1900.63 9.09465C1900.63 9.09465 1873.04 34.001 1851.34 49.5891C1841.94 55.9454 1832.09 57.0671 1821.8 52.9544C1810.33 45.4991 1799.44 31.4034 1789.14 10.667C1784.28 -1.65268 1790.26 -14.7793 1807.1 -28.7131ZM1851.21 -38.5166C1825.07 -21.7518 1812.51 -9.73023 1813.54 -2.45362C1814.93 7.16194 1819.28 13.8804 1826.57 17.7027C1831.87 20.2706 1844.51 12.083 1864.5 -6.86099C1870.01 -13.2438 1872.01 -18.8139 1870.49 -23.571C1864.22 -36.7072 1857.8 -41.6892 1851.21 -38.5166Z" fill="#C1A67B"/>
<path d="M1871.51 959.835C1875.36 954.547 1879.95 950.776 1883.72 947.356L1884.82 946.939C1886.42 946.343 1888.16 946.254 1889.81 946.683C1891.46 947.112 1892.94 948.039 1894.06 949.338C1895.17 950.637 1895.86 952.245 1896.04 953.944C1896.21 955.644 1895.86 957.351 1895.03 958.836L1878.53 1000.8C1887.89 985.282 1923.77 953.431 1944.71 943.891C1944.71 943.891 1924.6 943.191 1922.19 938.36C1919.78 933.53 1913.99 925.666 1912.28 922.893C1910.58 920.12 1908.11 917.902 1905.17 916.516C1902.23 915.13 1898.96 914.636 1895.76 915.096C1892.56 915.555 1889.57 916.948 1887.17 919.102L1869.18 935.205L1871.51 959.835Z" fill="#C1A67B"/>
<path d="M1924.06 1020.83C1926.29 1023.19 1928.37 1024.95 1930.3 1026.11C1932.08 1027.45 1934.17 1027.17 1936.57 1025.26C1952.66 1009.4 1967.18 995.255 1980.13 982.831C1981.5 982.437 1983.14 982.54 1985.05 983.14C1988.39 986.846 1991.06 989.772 1993.06 991.917C1996.26 995.277 1999.26 998.328 2002.09 1001.07C2002.85 1002.14 2003.02 1003.42 2002.61 1004.93C1987.71 1025.5 1970.77 1042.04 1951.78 1054.54C1945.28 1059.03 1937.88 1061.14 1929.57 1060.87C1920.19 1060.63 1906.54 1047.36 1888.61 1021.07C1883.52 1010.98 1884.36 1001.62 1891.13 992.988C1907.07 974.594 1925.95 959.622 1947.78 948.074C1953.42 946.51 1963.64 953.337 1978.43 968.556C1979.5 969.984 1979.67 971.635 1978.95 973.507C1972.17 979.904 1966.84 984.724 1962.94 987.966C1949.6 1000.11 1936.64 1011.06 1924.06 1020.83ZM1945.21 985.589C1943.73 983.514 1942.03 981.168 1940.09 978.552C1939.08 977.493 1937.06 977.947 1934.04 979.916C1924.58 986.743 1917.26 993.391 1912.1 999.861C1911.22 1002.08 1911.56 1004.53 1913.13 1007.2C1914.29 1008.92 1915.41 1010.49 1916.48 1011.92C1926.04 1003.7 1935.62 994.923 1945.21 985.589Z" fill="#C1A67B"/>
<path d="M2050.4 907.031C2037.08 911.845 2023.49 922.664 2009.62 939.489C2005.28 946.081 2008.22 952.482 2018.42 958.693C2022.44 960.831 2027.89 959.615 2034.79 955.046C2048.79 945.364 2059.39 934.768 2066.59 923.258C2066.98 921.05 2068.09 919.754 2069.93 919.37L2086.82 925.918C2087.9 926.562 2088.61 927.514 2088.97 928.774C2070.95 953.436 2048.29 971.757 2020.99 983.736C2011.98 987.243 1999.91 981.121 1984.78 965.37C1972.93 950.552 1969.26 938.121 1973.79 928.076C1988.15 902.535 2009.57 883.29 2038.07 870.343C2039.69 869.885 2041.16 870.45 2042.47 872.037L2052.29 904.077C2051.96 905.197 2051.33 906.182 2050.4 907.031Z" fill="#C1A67B"/>
<path d="M2102.6 872.043C2104.52 874.209 2106.18 876.173 2107.59 877.936C2117.61 889.839 2123.62 897.646 2125.62 901.357C2125.52 902.329 2124.99 903.097 2124.02 903.664C2117.62 909.112 2112.06 913.732 2107.35 917.524C2101.45 919.768 2096.57 918.638 2092.7 914.134C2079.31 898.97 2070.6 888.5 2066.57 882.725C2055.19 868.029 2044.32 854.87 2033.98 843.249C2033.11 842.425 2033.27 841.43 2034.44 840.265C2039.46 835.322 2044.91 830.567 2050.77 825.999C2053.55 825.018 2056.32 825.379 2059.08 827.081C2072.03 839.86 2082.68 850.666 2091.05 859.5C2100.3 852.545 2104.66 848.277 2104.13 846.696C2103.56 842.539 2097.93 834.832 2087.22 823.573C2086.97 822.687 2087.15 821.988 2087.75 821.476C2099.59 811.818 2108.94 803.975 2115.77 797.946C2116.92 797.478 2117.82 797.41 2118.47 797.741C2123.81 803.118 2128.14 808.665 2131.45 814.383C2134.17 818.935 2133.18 824.352 2128.48 830.635C2136.03 826.286 2142.96 825.733 2149.27 828.977C2159.56 837.041 2168.46 846.589 2175.97 857.621C2176.25 858.79 2176.11 859.953 2175.56 861.112C2166.15 869.193 2156.02 879.812 2139.91 891.503C2138.89 892.009 2137.88 892.069 2136.88 891.681C2125.1 875.498 2117.46 866.401 2113.97 864.389C2112.26 863.301 2108.47 865.853 2102.6 872.043Z" fill="#C1A67B"/>
<path d="M2144.15 782.878C2148.14 772.455 2166.56 753.684 2199.4 726.565C2208.4 719.618 2218.25 717.493 2228.96 720.192C2237.76 722.963 2249.93 734.814 2265.48 755.744C2271.41 766.622 2266.47 779.43 2250.65 794.17C2226.16 817.451 2206.73 831.455 2192.36 836.185C2181.29 839.275 2168.98 832.868 2155.41 816.963C2144.37 803.329 2140.62 791.967 2144.15 782.878ZM2200.75 809.245C2206.33 811.032 2217.84 801.739 2235.3 781.367C2240.32 774.859 2241.88 769.473 2239.98 765.209C2233.71 754.361 2227.4 750.781 2221.04 754.471C2195.99 772.866 2184.28 785.375 2185.93 791.995C2188.13 800.757 2193.07 806.507 2200.75 809.245Z" fill="#C1A67B"/>
<path d="M1790.67 984.236C1789.63 978.665 1791.73 973.341 1795.64 970.432C1800.06 967.146 1809.15 968.037 1815.93 965.572C1822.48 963.188 1828.64 959.57 1822.82 955.452C1812.64 948.233 1788.73 967.12 1788.73 967.12C1781.34 972.102 1771.32 967.091 1769.52 957.442C1767.48 946.474 1777.5 937.509 1787.38 943.096C1796.32 948.106 1820.01 949.875 1820.38 941.403C1820.76 932.832 1796.63 932.261 1789.03 932.927C1773.95 934.263 1768.25 919.344 1772.94 910.772C1778.49 900.637 1793.52 900.853 1797.79 913.782C1802.06 926.739 1827.64 939.251 1834.53 928.166C1840.23 918.993 1828.07 910.352 1823.73 904.917C1817.61 897.241 1819.87 884.454 1830.5 882.55C1841.13 880.646 1847.87 891.602 1844.78 900.945C1841.25 911.677 1846.83 918.229 1856.68 923.588C1881.81 937.271 1880.97 968.351 1849.84 971.135C1838.44 972.151 1841.32 981.566 1845.68 990.918C1849.66 999.454 1846.33 1009.87 1837.61 1011.45C1827.57 1013.25 1819.33 1001.52 1823.71 992.905C1825.73 988.95 1831.36 985.599 1833.67 977.939C1834.59 974.881 1832.34 970.638 1829.34 969.57C1819.45 966.063 1817.12 977.857 1815.14 986.085C1811.8 999.97 1793.36 998.614 1790.67 984.236Z" fill="#C1A67B"/>
<path d="M1918.09 1080.96C1918.07 1080.65 1918.48 1080.49 1918.67 1080.74C1926.47 1091.39 1939.09 1106.99 1943.2 1113.01C1946.56 1118.67 1943.82 1125.91 1934.97 1134.72C1933.33 1136.08 1927.72 1141.52 1921.83 1146.12C1922.62 1148.01 1923.31 1150.06 1923.88 1152.29C1926.86 1164.02 1936.19 1159.5 1945.21 1153.44C1953.43 1147.91 1964.85 1149.72 1967.98 1158.57C1971.55 1168.75 1960.72 1179.24 1951 1176.05C1946.53 1174.58 1942.08 1169.25 1933.71 1168.07C1930.36 1167.6 1926.32 1170.63 1925.71 1173.94C1923.73 1184.82 1936.42 1185.35 1945.33 1186.09C1960.38 1187.35 1962.08 1206.81 1947.55 1211.93C1941.91 1213.91 1936.01 1212.57 1932.31 1208.96C1928.14 1204.88 1927.53 1195.24 1923.81 1188.57C1920.22 1182.11 1915.4 1176.27 1912.09 1183C1906.29 1194.79 1930.02 1216.7 1930.03 1216.7C1936.47 1223.62 1932.94 1234.87 1923.19 1238.31C1912.1 1242.2 1901.06 1233.19 1905.21 1221.97C1908.92 1211.84 1906.76 1186.84 1897.86 1187.82C1888.86 1188.8 1892.35 1214.07 1894.33 1221.89C1898.27 1237.41 1883.68 1245.76 1873.95 1242.24C1862.44 1238.09 1860.13 1222.36 1872.88 1215.83C1885.67 1209.28 1894.39 1180.58 1881.67 1175.18C1871.14 1170.7 1864.18 1184.78 1859.25 1190.19C1852.28 1197.81 1838.57 1197.51 1834.79 1186.72C1831 1175.93 1841.29 1167.14 1851.55 1168.86C1863.34 1170.82 1869.22 1163.94 1873.14 1152.8C1877.48 1140.48 1886.05 1132.73 1895.03 1130.5C1898.71 1127.86 1899.28 1127.52 1906.51 1122.35C1908.24 1120.01 1907.17 1116.33 1903.32 1111.32C1903.22 1111.2 1903.23 1111.02 1903.35 1110.91C1905.22 1109.19 1919.21 1095.78 1918.09 1080.96ZM1807.4 1069.29C1833.43 1047.27 1853.69 1034.58 1868.18 1031.21C1876.44 1028.86 1886.61 1035.37 1898.7 1050.72L1898.67 1050.59C1900.32 1052.81 1902.13 1055.26 1904 1057.79C1915.06 1072.79 1913.74 1093.56 1900.94 1107.09C1900.84 1107.18 1873.3 1132.03 1851.65 1147.59C1842.24 1153.95 1832.4 1155.07 1822.11 1150.95C1810.64 1143.5 1799.75 1129.4 1789.44 1108.67C1784.58 1096.35 1790.57 1083.22 1807.4 1069.29ZM1851.51 1059.48C1825.38 1076.25 1812.82 1088.27 1813.85 1095.55C1815.24 1105.16 1819.58 1111.88 1826.88 1115.7C1832.18 1118.27 1844.82 1110.08 1864.8 1091.14C1870.32 1084.76 1872.31 1079.19 1870.79 1074.43C1864.53 1061.29 1858.1 1056.31 1851.51 1059.48Z" fill="#C1A67B"/>
<path d="M22.5 1024.94C25.4888 1025.37 31.03 1026.52 35.387 1027.82C36.8033 1028.25 38.1597 1028.84 39.4741 1029.52C58.5419 1039.32 73.0031 1046.02 97.2358 1051.23C104.306 1052.75 108.35 1053.22 115.517 1054.18C124.871 1055.43 138.384 1044.29 147.819 1044.49C160.904 1044.76 154.909 1099.49 167.356 1095.44C185.119 1089.68 225.293 1079.02 234.691 1077.38C254 1073.99 302.853 1157.99 302.331 1162.48C297.221 1166.7 241.308 1094.51 232.097 1099.73C224.264 1104.16 205.314 1110.77 196.095 1115.02C185.321 1119.98 174.097 1124.52 163.581 1127.98C153.646 1131.25 136.651 1074.25 128.955 1075.01C114.686 1076.44 96.4685 1090.37 96.4685 1090.37C96.4685 1090.37 72.7881 1091.89 58.6119 1091.76C55.4683 1092.12 52.1248 1091.75 49.0546 1092.43C46.3764 1093.03 26.5804 1095.78 24.0382 1096.88C29.3744 1082.06 38.445 1060.37 33.5804 1035.83C33.0109 1032.96 31.3741 1030.39 28.8937 1028.84C26.3165 1027.22 23.8227 1025.95 22.5 1024.94Z" fill="#C1A67B"/>
<path d="M18.517 1101.14C18.7331 1100.92 19.1292 1101.12 19.0641 1101.42C16.2484 1114.54 12.9173 1134.67 11.1208 1141.86C9.08841 1148.23 1.74051 1151.03 -10.9219 1150.26C-13.0657 1149.93 -20.9776 1149.35 -28.4514 1147.98C-29.3493 1149.85 -30.4451 1151.76 -31.7549 1153.7C-38.6427 1163.89 -28.9129 1167.92 -18.2303 1170.68C-8.4792 1173.19 -2.13867 1183.08 -6.74775 1191.42C-12.0637 1201.01 -27.3481 1199.87 -31.4892 1190.33C-33.3855 1185.95 -32.3377 1178.97 -37.0985 1171.82C-39.0024 1168.96 -44.033 1167.94 -46.95 1169.71C-56.5525 1175.55 -48.3924 1185.55 -42.9356 1192.81C-33.7329 1205.08 -47.3585 1219.51 -61.0595 1211.94C-66.3673 1209 -69.3359 1203.61 -69.0898 1198.37C-68.8075 1192.44 -61.9049 1185.47 -59.3461 1178.15C-56.87 1171.06 -55.6851 1163.46 -63.0272 1165.49C-75.8788 1169.04 -76.5104 1201.75 -76.5125 1201.86C-77.4104 1211.42 -88.3421 1216.34 -97.5335 1211.25C-107.979 1205.46 -108.588 1190.99 -97.2685 1186.57C-87.0703 1182.55 -69.5463 1164.03 -76.2933 1157.93C-83.1138 1151.76 -99.948 1171.47 -104.552 1178.25C-113.675 1191.72 -129.865 1186.28 -133.764 1176.52C-138.373 1164.97 -128 1152.6 -114.426 1157.88C-100.824 1163.17 -73.1461 1150.41 -77.6302 1137.1C-81.3404 1126.09 -96.7257 1130.31 -104.158 1130.22C-114.647 1130.07 -123.677 1119.45 -118.043 1109.3C-112.402 1099.14 -98.7847 1101.01 -93.1606 1109.97C-86.6942 1120.24 -77.4922 1120.06 -66.3868 1115.52C-54.1071 1110.5 -42.4369 1111.77 -34.6817 1117.09C-30.1958 1118.1 -29.5461 1118.3 -20.7459 1120.31C-17.8012 1120.04 -15.7279 1116.74 -14.5262 1110.43C-14.4963 1110.27 -14.3548 1110.16 -14.1973 1110.18C-11.6399 1110.44 8.01403 1112.02 18.517 1101.14ZM-47.3571 1009.22C-13.0735 1014.12 10.241 1020.94 22.5859 1029.67C29.9465 1034.36 31.8738 1046.47 28.3683 1066.02L28.4551 1065.9C27.8817 1068.65 27.244 1071.69 26.5818 1074.82C22.6636 1093.34 6.00375 1106.36 -12.9225 1105.77C-12.9225 1105.77 -50.4629 1101.63 -76.9463 1095.68C-88.1204 1092.83 -95.6202 1086.11 -99.4445 1075.52C-101.526 1061.78 -98.1732 1044 -89.386 1022.17C-83.3102 1010.17 -69.3002 1005.85 -47.3571 1009.22ZM-10.1341 1036.1C-40.5101 1027.57 -58.1141 1026.15 -62.946 1031.85C-69.3082 1039.39 -71.4777 1047.23 -69.4539 1055.35C-67.8269 1061.11 -53.0751 1065.18 -25.1991 1067.56C-16.632 1067.44 -11.0552 1065.19 -8.46922 1060.83C-2.722 1047.21 -3.27694 1038.96 -10.1341 1036.1Z" fill="#C1A67B"/>
</g>
<defs>
<clipPath id="clip0_2_6">
<rect width="1920" height="1081" fill="white"/>
</clipPath>
</defs>
</svg>
